<svg xmlns="http://www.w3.org/2000/svg" width="18.4" height="13.9" viewBox="0 0 18.4 13.9">
  <path id="email_2_" data-name="email (2)" d="M16.312,59.882H1.688A1.689,1.689,0,0,0,0,61.57V71.695a1.689,1.689,0,0,0,1.688,1.688H16.312A1.689,1.689,0,0,0,18,71.695V61.57A1.689,1.689,0,0,0,16.312,59.882Zm0,1.125a.559.559,0,0,1,.216.044L9,67.575,1.472,61.051a.56.56,0,0,1,.216-.044Zm0,11.25H1.688a.563.563,0,0,1-.563-.563V62.239l7.506,6.506a.563.563,0,0,0,.737,0l7.506-6.506v9.455A.563.563,0,0,1,16.312,72.257Z" transform="translate(0.2 -59.682)" fill="#f1f5f8" stroke="#fff" stroke-width="0.4"/>
</svg>
