<svg xmlns="http://www.w3.org/2000/svg" width="13.9" height="18.4" viewBox="0 0 13.9 18.4">
  <g id="lock" transform="translate(0.2 0.2)">
    <path id="Path_877" data-name="Path 877" d="M11.812,203.479H1.687A1.707,1.707,0,0,1,0,201.757v-8.035A1.707,1.707,0,0,1,1.687,192H11.812a1.707,1.707,0,0,1,1.687,1.722v8.035A1.707,1.707,0,0,1,11.812,203.479ZM1.687,193.148a.569.569,0,0,0-.562.574v8.035a.569.569,0,0,0,.562.574H11.812a.569.569,0,0,0,.562-.574v-8.035a.569.569,0,0,0-.562-.574Zm0,0" transform="translate(0 -185.479)" fill="#fff" stroke="#fff" stroke-width="0.4"/>
    <path id="Path_878" data-name="Path 878" d="M72.352,7.63a.551.551,0,0,1-.557-.545V4.36a3.341,3.341,0,0,0-6.681,0V7.085a.557.557,0,0,1-1.114,0V4.36a4.455,4.455,0,0,1,8.909,0V7.085A.551.551,0,0,1,72.352,7.63Zm0,0" transform="translate(-61.704)" fill="#fff" stroke="#fff" stroke-width="0.4"/>
  </g>
</svg>
